HIERARCHY
ROOT Hips
{
  OFFSET 26.0538 102.591 203.439
  CHANNELS 6 Xposition Yposition Zposition Zrotation Xrotation Yrotation
  JOINT RightUpLeg
  {
    OFFSET -8.9458 -8.66707 0.101652
    CHANNELS 3 Zrotation Xrotation Yrotation
    JOINT RightLeg
    {
      OFFSET 0 -44.4227 1.3727
      CHANNELS 3 Zrotation Xrotation Yrotation
      JOINT RightFoot
      {
        OFFSET 0.253549 -42.0924 -1.46059
        CHANNELS 3 Zrotation Xrotation Yrotation
        JOINT RightToes
        {
          OFFSET 0.04 -4.41509 8.4991
          CHANNELS 3 Zrotation Xrotation Yrotation
          End Site
          {
            OFFSET -0.08 -0.137448 9.77979
          }
        }
      }
    }
  }
  JOINT Spine
  {
    OFFSET 0 11.8905 0
    CHANNELS 3 Zrotation Xrotation Yrotation
    JOINT Spine1
    {
      OFFSET 0 25.6574 0.127663
      CHANNELS 3 Zrotation Xrotation Yrotation
      JOINT HEad
      {
        OFFSET 0 8.73416 0.011341
        CHANNELS 3 Zrotation Xrotation Yrotation
        End Site
        {
          OFFSET -0.29 12.7742 2.51395
        }
      }
      JOINT LeftShoulder1
      {
        OFFSET 8.99 -0.362252 -0.22
        CHANNELS 3 Zrotation Xrotation Yrotation
        JOINT LeftArm
        {
          OFFSET 10.2827 -0.00338 0.322123
          CHANNELS 3 Zrotation Xrotation Yrotation
          JOINT LeftForeArm
          {
            OFFSET 32.7669 0.099144 -1.42434
            CHANNELS 3 Zrotation Xrotation Yrotation
            JOINT LeftHand
            {
              OFFSET 27.5643 0.085362 1.02216
              CHANNELS 3 Zrotation Xrotation Yrotation
              End Site
              {
                OFFSET 16.7443 -0.6 1.50291
              }
            }
          }
        }
      }
      JOINT RightShoulder
      {
        OFFSET -8.99 -0.362252 -0.22
        CHANNELS 3 Zrotation Xrotation Yrotation
        JOINT RightArm
        {
          OFFSET -10.2827 -0.00338 0.322123
          CHANNELS 3 Zrotation Xrotation Yrotation
          JOINT RightForeArm
          {
            OFFSET -32.8971 0.099144 -1.42434
            CHANNELS 3 Zrotation Xrotation Yrotation
            JOINT RightHand
            {
              OFFSET -27.4921 0.085362 1.02216
              CHANNELS 3 Zrotation Xrotation Yrotation
              End Site
              {
                OFFSET -16.6312 -0.6 1.50291
              }
            }
          }
        }
      }
    }
  }
  JOINT LeftUpLeg
  {
    OFFSET 8.9458 -8.66707 0.101652
    CHANNELS 3 Zrotation Xrotation Yrotation
    JOINT LeftLeg
    {
      OFFSET 0 -44.4227 1.3727
      CHANNELS 3 Zrotation Xrotation Yrotation
      JOINT LeftFoot
      {
        OFFSET -0.253549 -42.0924 -1.46059
        CHANNELS 3 Zrotation Xrotation Yrotation
        JOINT LeftToes
        {
          OFFSET -0.04 -4.41509 8.4991
          CHANNELS 3 Zrotation Xrotation Yrotation
          End Site
          {
            OFFSET 0.08 -0.047448 9.77979
          }
        }
      }
    }
  }
}
MOTION
Frames:	16
Frame Time:	0.0166667
19.5479 101.706 69.2274 -3.87279 10.5662 -178.193 -4.89928 -5.2414 -2.42976 11.3208 19.3475 -20.1021 12.7263 -7.12041 0.180429 -2.39242 8.28346 6.91237 -2.54326 3.15733 0.629116 -0.913425 13.3129 0.248328 -4.93148 21.2272 8.41018 -4.96962e-017 7.95139e-016 -0 -89.2318 -39.015 -10.6197 -12.5124 15.3791 -26.208 0.368473 9.90896 -0.00117926 -0.807217 0.391391 1.5504 79.2555 -24.5518 0.195992 25.6623 14.4824 15.3449 -0.369625 9.91382 0.00119886 10.7868 -5.08179 8.09312 -27.0745 54.0991 52.9295 7.43827 6.48978 -0.58634 -8.57478e-012 -1.45606e-011 4.30329e-012 
19.672 101.78 68.4349 -4.2677 10.5773 -177.97 -5.22819 -4.74817 -2.52156 11.3756 19.4665 -20.0296 12.7114 -7.31884 0.202966 -0.779594 7.03608 5.82478 -2.53853 3.18105 0.673845 -0.54456 13.5688 0.19797 -5.58021 21.1166 8.18006 0 0 -3.97569e-016 -89.6935 -39.683 -10.4018 -12.6259 15.3581 -25.8382 0.368473 9.90896 -0.00117926 -1.57791 0.378898 1.8547 79.9143 -24.6602 0.958319 25.3749 14.5454 15.478 -0.369625 9.91382 0.00119886 10.8663 -7.40183 8.28253 -28.5382 55.42 52.9222 7.31438 6.26695 -0.564253 -8.57796e-012 -1.45638e-011 4.30965e-012 
19.7691 101.85 67.6692 -4.65922 10.6011 -177.784 -5.54312 -4.26747 -2.65364 11.3654 19.6111 -19.8648 12.6698 -7.53922 0.226332 0.935715 5.77357 4.7294 -2.45805 3.21129 0.685251 -0.279157 13.8905 0.168439 -6.13861 21.0399 7.98114 -2.48481e-016 0 3.97569e-016 -90.1782 -40.4122 -10.2737 -12.7144 15.3168 -25.3579 0.368473 9.90896 -0.00117926 -2.3814 0.36087 2.16709 80.7209 -24.8202 1.84035 25.0223 14.5948 15.5321 -0.369625 9.91382 0.00119886 10.7651 -9.62065 8.39759 -29.5339 56.2929 51.8491 6.95097 5.90441 -0.514366 -8.58114e-012 -1.45606e-011 4.31601e-012 
19.8425 101.936 66.9249 -5.035 10.6833 -177.634 -5.82675 -3.75438 -2.86694 11.2703 19.8248 -19.511 12.4968 -8.02689 0.273382 1.75344 5.36435 4.36684 -2.19467 3.24403 0.635026 -0.213237 14.2947 0.180626 -6.41064 20.9969 7.78418 -4.47266e-016 -1.59028e-015 3.97569e-016 -90.5742 -41.1758 -10.1879 -12.808 15.2629 -24.7846 0.368473 9.90896 -0.00117926 -3.05451 0.353006 2.61625 81.5302 -24.9496 2.77934 24.6642 14.6179 15.4883 -0.369625 9.91382 0.00119886 10.5166 -11.5917 8.42331 -30.0994 56.44 51.3474 6.87563 5.80656 -0.504771 -8.57796e-012 -1.45638e-011 4.30329e-012 
19.8963 102.022 66.2003 -5.37838 10.7711 -177.531 -6.08231 -3.2404 -3.0359 11.1638 20.0155 -19.2026 12.3059 -8.5461 0.322563 2.06255 5.26419 4.27883 -1.90724 3.27595 0.575056 -0.174014 14.6981 0.196944 -6.63859 20.9903 7.62903 1.49089e-016 7.95139e-016 7.95139e-016 -90.9254 -41.9747 -10.0524 -12.9082 15.2082 -24.212 0.368473 9.90896 -0.00117926 -3.69337 0.343197 3.07662 82.2993 -25.0276 3.72492 24.327 14.6389 15.4523 -0.369625 9.91382 0.00119886 10.1903 -13.3786 8.27922 -30.4062 55.9497 51.1182 6.89834 5.70521 -0.501697 -8.57159e-012 -1.45574e-011 4.31283e-012 
19.9383 102.097 65.4936 -5.67481 10.8256 -177.484 -6.32549 -2.744 -2.98153 11.1527 20.0966 -19.2408 12.1816 -8.93437 0.358508 1.84671 5.21581 4.26226 -1.75464 3.30095 0.556632 0.00108817 15.0167 0.181428 -7.03463 21.045 7.55099 2.98177e-016 0 -0 -91.2444 -42.798 -9.75856 -13.0262 15.1697 -23.7367 0.368473 9.90896 -0.00117926 -4.33955 0.323056 3.43488 82.8994 -24.9695 4.59212 24.0799 14.6835 15.5548 -0.369625 9.91382 0.00119886 9.86892 -15.0068 7.80108 -30.7253 54.7917 51.6808 7.0293 5.40115 -0.49138 -8.57478e-012 -1.45765e-011 4.30647e-012 
19.9601 102.168 64.7997 -5.90373 10.852 -177.505 -6.52006 -2.25866 -2.90609 11.1325 20.0971 -19.3334 12.1026 -9.21725 0.384893 1.2155 5.21179 4.31008 -1.63018 3.32343 0.553255 0.250295 15.2693 0.149192 -7.49375 21.0951 7.5347 -1.98785e-016 0 -3.97569e-016 -91.4775 -43.6526 -9.28253 -13.1696 15.1468 -23.3665 0.368473 9.90896 -0.00117926 -4.99289 0.297209 3.78296 83.4255 -24.894 5.41474 23.8533 14.7344 15.7028 -0.369625 9.91382 0.00119886 9.51484 -16.4452 7.2158 -30.637 53.0749 52.1399 7.19661 5.0917 -0.482054 -8.57159e-012 -1.45606e-011 4.30647e-012 
19.9496 102.241 64.1189 -6.03081 10.8374 -177.622 -6.61758 -1.7778 -3.02873 10.9862 19.9834 -19.2585 12.0783 -9.26365 0.389773 -0.0711938 5.15096 4.36927 -1.47772 3.34732 0.557314 0.589472 15.4391 0.0988595 -7.99506 21.073 7.59422 1.98785e-016 0 3.97569e-016 -91.5626 -44.5468 -8.51788 -13.361 15.1513 -23.1816 0.368473 9.90896 -0.00117926 -5.68917 0.266697 4.19435 83.9557 -24.9356 6.21144 23.575 14.7817 15.836 -0.369625 9.91382 0.00119886 9.15206 -17.6714 6.71032 -29.9112 50.8746 51.8054 7.34906 4.98852 -0.483407 -8.57478e-012 -1.45733e-011 4.30329e-012 
19.9259 102.305 63.4334 -6.08388 10.7979 -177.794 -6.64825 -1.32118 -3.1186 10.853 19.857 -19.1042 12.1013 -9.38095 0.404643 -0.984844 5.05678 4.3753 -1.3044 3.36803 0.563428 0.9472 15.5489 0.0442105 -8.49921 21.0081 7.67669 1.3418e-015 0 -0 -91.5104 -45.4572 -7.58254 -13.5667 15.1635 -23.0605 0.368473 9.90896 -0.00117926 -6.36199 0.233861 4.61102 84.4385 -24.9591 6.95386 23.3223 14.8305 15.9876 -0.369625 9.91382 0.00119886 8.78198 -18.676 6.26679 -28.7439 48.2671 51.1307 7.43409 4.84927 -0.477169 -8.58432e-012 -1.45701e-011 4.31601e-012 
19.9087 102.35 62.7167 -6.0763 10.7493 -177.967 -6.62571 -0.885726 -2.975 10.8558 19.803 -18.8396 12.1995 -9.95727 0.472177 -0.0357903 4.92358 4.20667 -1.09223 3.38276 0.560369 1.24515 15.6061 0.000946947 -8.93811 20.9295 7.7064 1.2424e-015 3.18055e-015 -0 -91.311 -46.3612 -6.56205 -13.7488 15.1635 -22.8978 0.368473 9.90896 -0.00117926 -6.9239 0.203358 4.9829 84.7875 -24.8276 7.58836 23.1834 14.8858 16.1923 -0.369625 9.91382 0.00119886 8.42755 -19.4361 5.92523 -27.2085 45.3443 50.4328 7.31764 4.34637 -0.433788 -8.57319e-012 -1.45638e-011 4.30647e-012 
19.884 102.366 61.9957 -6.0173 10.68 -178.204 -6.57368 -0.532251 -2.72708 10.9229 19.8368 -18.598 12.2803 -10.6192 0.547756 1.14912 4.73734 3.98156 -0.860414 3.39018 0.558071 1.51935 15.6403 -0.0379129 -9.37713 20.7703 7.76599 -4.96962e-017 1.59028e-015 -7.95139e-016 -91.0002 -47.2689 -5.47152 -13.9397 15.1611 -22.725 0.368473 9.90896 -0.00117926 -7.47441 0.169254 5.3596 85.1616 -24.6844 8.1998 23.0519 14.9375 16.386 -0.369625 9.91382 0.00119886 8.05833 -19.972 5.70637 -25.3588 42.1073 49.3288 7.1946 3.94712 -0.397022 -8.57159e-012 -1.45669e-011 4.30647e-012 
19.8373 102.335 61.3021 -5.92469 10.5732 -178.584 -6.52955 -0.357072 -2.43763 11.0146 20.0193 -18.5311 12.2547 -11.068 0.595026 1.15411 4.46943 3.79144 -0.625356 3.38801 0.565285 1.79576 15.6914 -0.0772245 -9.91436 20.4156 7.94347 -4.96962e-017 0 -3.97569e-016 -90.6339 -48.2082 -4.37559 -14.1773 15.1614 -22.5348 0.368473 9.90896 -0.00117926 -8.14567 0.12221 5.80671 85.7755 -24.6695 8.87991 22.813 14.9761 16.5052 -0.369625 9.91382 0.00119886 7.63519 -20.2869 5.71321 -23.3549 38.4506 47.4646 7.30959 4.14347 -0.416179 -8.57955e-012 -1.45654e-011 4.30011e-012 
19.7896 102.265 60.5963 -5.78827 10.4596 -178.998 -6.45041 -0.25143 -2.10442 11.1564 20.3026 -18.5532 12.1325 -11.468 0.63008 0.837122 4.15842 3.59503 -0.377434 3.37627 0.574332 2.02678 15.7359 -0.107808 -10.3778 20.0383 8.14569 9.93923e-016 0 -7.95139e-016 -90.1566 -49.1103 -3.2224 -14.4076 15.1589 -22.3383 0.368473 9.90896 -0.00117926 -8.75139 0.0771721 6.22628 86.3959 -24.648 9.5624 22.5812 15.0066 16.582 -0.369625 9.91382 0.00119886 7.19543 -20.4107 5.73849 -21.3666 34.5382 45.3893 7.37424 4.53402 -0.444454 -8.57955e-012 -1.45669e-011 4.31919e-012 
19.7629 102.152 59.8449 -5.60342 10.3707 -179.35 -6.29982 -0.133254 -1.72078 11.3749 20.6633 -18.6531 11.8643 -11.9202 0.658393 0.688257 3.78196 3.33727 -0.108348 3.35313 0.57709 2.14302 15.7664 -0.116309 -10.5784 19.8041 8.2926 -3.97569e-016 1.59028e-015 -1.19271e-015 -89.5093 -49.8979 -1.96957 -14.5891 15.149 -22.1443 0.368473 9.90896 -0.00117926 -9.11114 0.0483799 6.52209 86.8327 -24.5003 10.2236 22.4487 15.0286 16.6149 -0.369625 9.91382 0.00119886 6.75118 -20.356 5.58331 -19.4201 30.5254 43.163 7.11859 4.88 -0.447207 -8.57796e-012 -1.45669e-011 4.31601e-012 
19.7386 102.004 59.0615 -5.36583 10.2901 -179.678 -6.10007 -0.0186304 -1.36316 11.6321 21.087 -18.7611 11.5409 -12.316 0.675877 0.396065 3.49423 3.15072 0.169459 3.32181 0.583633 2.23562 15.7738 -0.12006 -10.6781 19.6182 8.43575 1.49089e-016 1.59028e-015 -1.98785e-016 -88.7811 -50.6187 -0.669095 -14.7228 15.1331 -21.9525 0.368473 9.90896 -0.00117926 -9.34179 0.0283882 6.75449 87.1508 -24.3253 10.8196 22.3671 15.0492 16.6402 -0.369625 9.91382 0.00119886 6.32225 -20.1777 5.32142 -17.6018 26.4303 41.2467 6.73078 5.18555 -0.437152 -8.57955e-012 -1.45681e-011 4.31919e-012 
19.7012 101.816 58.2483 -5.06109 10.2077 -179.982 -5.85962 0.0853167 -1.1182 11.9084 21.5731 -18.7937 11.2347 -12.5196 0.673963 -0.293507 3.52537 3.21509 0.458406 3.28299 0.604017 2.38993 15.7352 -0.13468 -10.7921 19.4277 8.60919 -2.38542e-015 -1.59028e-015 2.98177e-016 -88.0435 -51.2845 0.644914 -14.7905 15.1112 -21.7707 0.368473 9.90896 -0.00117926 -9.49509 0.0150253 6.95201 87.3243 -24.1829 11.2764 22.3286 15.081 16.7221 -0.369625 9.91382 0.00119886 5.9177 -19.9541 4.91677 -15.7278 22.4806 40.0455 6.2498 5.31897 -0.406316 -8.57813e-012 -1.45666e-011 4.30647e-012 
